<svg width="16" height="22" viewBox="0 0 16 22" fill="none" xmlns="http://www.w3.org/2000/svg">
<path d="M6.73333 14.0668L11.4333 9.36683L10.5 8.4335L6.73333 12.2002L4.83333 10.3002L3.9 11.2335L6.73333 14.0668ZM7.66667 17.6668C6.74444 17.6668 5.87778 17.4918 5.06667 17.1418C4.25556 16.7918 3.55 16.3168 2.95 15.7168C2.35 15.1168 1.875 14.4113 1.525 13.6002C1.175 12.7891 1 11.9224 1 11.0002C1 10.0779 1.175 9.21127 1.525 8.40016C1.875 7.58905 2.35 6.8835 2.95 6.2835C3.55 5.6835 4.25556 5.2085 5.06667 4.8585C5.87778 4.5085 6.74444 4.3335 7.66667 4.3335C8.58889 4.3335 9.45555 4.5085 10.2667 4.8585C11.0778 5.2085 11.7833 5.6835 12.3833 6.2835C12.9833 6.8835 13.4583 7.58905 13.8083 8.40016C14.1583 9.21127 14.3333 10.0779 14.3333 11.0002C14.3333 11.9224 14.1583 12.7891 13.8083 13.6002C13.4583 14.4113 12.9833 15.1168 12.3833 15.7168C11.7833 16.3168 11.0778 16.7918 10.2667 17.1418C9.45555 17.4918 8.58889 17.6668 7.66667 17.6668ZM7.66667 16.3335C9.15555 16.3335 10.4167 15.8168 11.45 14.7835C12.4833 13.7502 13 12.4891 13 11.0002C13 9.51127 12.4833 8.25016 11.45 7.21683C10.4167 6.1835 9.15555 5.66683 7.66667 5.66683C6.17778 5.66683 4.91667 6.1835 3.88333 7.21683C2.85 8.25016 2.33333 9.51127 2.33333 11.0002C2.33333 12.4891 2.85 13.7502 3.88333 14.7835C4.91667 15.8168 6.17778 16.3335 7.66667 16.3335Z" fill="white"/>
</svg>
