<svg width="17" height="22" viewBox="0 0 17 22" fill="none" xmlns="http://www.w3.org/2000/svg">
<mask id="mask0_586_227" style="mask-type:alpha" maskUnits="userSpaceOnUse" x="1" y="3" width="17" height="16">
<rect x="1.5" y="3" width="16" height="16" fill="#D9D9D9"/>
</mask>
<g mask="url(#mask0_586_227)">
<path d="M8.10033 13.3335L9.50033 11.9335L10.9003 13.3335L11.8337 12.4002L10.4337 11.0002L11.8337 9.60016L10.9003 8.66683L9.50033 10.0668L8.10033 8.66683L7.16699 9.60016L8.56699 11.0002L7.16699 12.4002L8.10033 13.3335ZM9.50033 17.6668C7.95588 17.2779 6.68088 16.3918 5.67533 15.0085C4.66977 13.6252 4.16699 12.0891 4.16699 10.4002V6.3335L9.50033 4.3335L14.8337 6.3335V10.4002C14.8337 12.0891 14.3309 13.6252 13.3253 15.0085C12.3198 16.3918 11.0448 17.2779 9.50033 17.6668ZM9.50033 16.2668C10.6559 15.9002 11.6114 15.1668 12.367 14.0668C13.1225 12.9668 13.5003 11.7446 13.5003 10.4002V7.25016L9.50033 5.75016L5.50033 7.25016V10.4002C5.50033 11.7446 5.8781 12.9668 6.63366 14.0668C7.38921 15.1668 8.34477 15.9002 9.50033 16.2668Z" fill="white"/>
</g>
</svg>
