<svg width="17" height="22" viewBox="0 0 17 22" fill="none" xmlns="http://www.w3.org/2000/svg">
<mask id="mask0_586_203" style="mask-type:alpha" maskUnits="userSpaceOnUse" x="1" y="3" width="17" height="16">
<rect x="1.5" y="3" width="16" height="16" fill="#D9D9D9"/>
</mask>
<g mask="url(#mask0_586_203)">
<path d="M8.83301 14.3335H10.1663V10.3335H8.83301V14.3335ZM9.49967 9.00016C9.68856 9.00016 9.8469 8.93627 9.97467 8.8085C10.1025 8.68072 10.1663 8.52238 10.1663 8.3335C10.1663 8.14461 10.1025 7.98627 9.97467 7.8585C9.8469 7.73072 9.68856 7.66683 9.49967 7.66683C9.31079 7.66683 9.15245 7.73072 9.02467 7.8585C8.8969 7.98627 8.83301 8.14461 8.83301 8.3335C8.83301 8.52238 8.8969 8.68072 9.02467 8.8085C9.15245 8.93627 9.31079 9.00016 9.49967 9.00016ZM9.49967 17.6668C8.57745 17.6668 7.71079 17.4918 6.89967 17.1418C6.08856 16.7918 5.38301 16.3168 4.78301 15.7168C4.18301 15.1168 3.70801 14.4113 3.35801 13.6002C3.00801 12.7891 2.83301 11.9224 2.83301 11.0002C2.83301 10.0779 3.00801 9.21127 3.35801 8.40016C3.70801 7.58905 4.18301 6.8835 4.78301 6.2835C5.38301 5.6835 6.08856 5.2085 6.89967 4.8585C7.71079 4.5085 8.57745 4.3335 9.49967 4.3335C10.4219 4.3335 11.2886 4.5085 12.0997 4.8585C12.9108 5.2085 13.6163 5.6835 14.2163 6.2835C14.8163 6.8835 15.2913 7.58905 15.6413 8.40016C15.9913 9.21127 16.1663 10.0779 16.1663 11.0002C16.1663 11.9224 15.9913 12.7891 15.6413 13.6002C15.2913 14.4113 14.8163 15.1168 14.2163 15.7168C13.6163 16.3168 12.9108 16.7918 12.0997 17.1418C11.2886 17.4918 10.4219 17.6668 9.49967 17.6668ZM9.49967 16.3335C10.9886 16.3335 12.2497 15.8168 13.283 14.7835C14.3163 13.7502 14.833 12.4891 14.833 11.0002C14.833 9.51127 14.3163 8.25016 13.283 7.21683C12.2497 6.1835 10.9886 5.66683 9.49967 5.66683C8.01079 5.66683 6.74967 6.1835 5.71634 7.21683C4.68301 8.25016 4.16634 9.51127 4.16634 11.0002C4.16634 12.4891 4.68301 13.7502 5.71634 14.7835C6.74967 15.8168 8.01079 16.3335 9.49967 16.3335Z" fill="white"/>
</g>
</svg>
