<svg width="32" height="32" viewBox="0 0 32 32" fill="none" xmlns="http://www.w3.org/2000/svg">
<g clip-path="url(#clip0_154_1593)">
<mask id="mask0_154_1593" style="mask-type:alpha" maskUnits="userSpaceOnUse" x="8" y="8" width="16" height="16">
<rect x="8" y="8" width="16" height="16" fill="#D9D9D9"/>
</mask>
<g mask="url(#mask0_154_1593)">
<path d="M12.667 22C12.3003 22 11.9864 21.8694 11.7253 21.6083C11.4642 21.3472 11.3337 21.0333 11.3337 20.6667V12H10.667V10.6667H14.0003V10H18.0003V10.6667H21.3337V12H20.667V20.6667C20.667 21.0333 20.5364 21.3472 20.2753 21.6083C20.0142 21.8694 19.7003 22 19.3337 22H12.667ZM19.3337 12H12.667V20.6667H19.3337V12ZM14.0003 19.3333H15.3337V13.3333H14.0003V19.3333ZM16.667 19.3333H18.0003V13.3333H16.667V19.3333Z" fill="#7C808C"/>
</g>
</g>
<rect x="0.5" y="0.5" width="31" height="31" rx="4.5" stroke="#A5C7CE"/>
<defs>
<clipPath id="clip0_154_1593">
<rect width="32" height="32" rx="5" fill="white"/>
</clipPath>
</defs>
</svg>
