<svg width="17" height="22" viewBox="0 0 17 22" fill="none" xmlns="http://www.w3.org/2000/svg">
<mask id="mask0_586_215" style="mask-type:alpha" maskUnits="userSpaceOnUse" x="1" y="3" width="16" height="16">
<rect x="1" y="3" width="16" height="16" fill="#D9D9D9"/>
</mask>
<g mask="url(#mask0_586_215)">
<path d="M1.66699 17.0002L9.00033 4.3335L16.3337 17.0002H1.66699ZM3.96699 15.6668H14.0337L9.00033 7.00016L3.96699 15.6668ZM9.00033 15.0002C9.18921 15.0002 9.34755 14.9363 9.47533 14.8085C9.6031 14.6807 9.66699 14.5224 9.66699 14.3335C9.66699 14.1446 9.6031 13.9863 9.47533 13.8585C9.34755 13.7307 9.18921 13.6668 9.00033 13.6668C8.81144 13.6668 8.6531 13.7307 8.52533 13.8585C8.39755 13.9863 8.33366 14.1446 8.33366 14.3335C8.33366 14.5224 8.39755 14.6807 8.52533 14.8085C8.6531 14.9363 8.81144 15.0002 9.00033 15.0002ZM8.33366 13.0002H9.66699V9.66683H8.33366V13.0002Z" fill="white"/>
</g>
</svg>
